<mxfile host="Electron" modified="2023-04-18T15:43:22.262Z" agent="Mozilla/5.0 (Windows NT 10.0; Win64; x64) AppleWebKit/537.36 (KHTML, like Gecko) draw.io/21.1.2 Chrome/106.0.5249.199 Electron/21.4.3 Safari/537.36" etag="Jrf5CJt52ralnC3vHRzu" version="21.1.2" type="device">
  <diagram name="ページ1" id="80s_TT-eO7807xOBP9RJ">
    <mxGraphModel dx="1674" dy="844" grid="0" gridSize="10" guides="1" tooltips="1" connect="1" arrows="1" fold="1" page="1" pageScale="1" pageWidth="1169" pageHeight="827" math="0" shadow="0">
      <root>
        <mxCell id="0" />
        <mxCell id="1" parent="0" />
        <mxCell id="b-HRCgTtAuN_dH9P7AYA-6" style="edgeStyle=orthogonalEdgeStyle;rounded=0;orthogonalLoop=1;jettySize=auto;html=1;" parent="1" source="b-HRCgTtAuN_dH9P7AYA-3" target="b-HRCgTtAuN_dH9P7AYA-5" edge="1">
          <mxGeometry relative="1" as="geometry">
            <Array as="points">
              <mxPoint x="286" y="168" />
            </Array>
          </mxGeometry>
        </mxCell>
        <mxCell id="rKdkZZPiWeMUejs4Be-v-7" style="edgeStyle=orthogonalEdgeStyle;rounded=0;orthogonalLoop=1;jettySize=auto;html=1;" edge="1" parent="1" source="b-HRCgTtAuN_dH9P7AYA-3" target="rKdkZZPiWeMUejs4Be-v-6">
          <mxGeometry relative="1" as="geometry" />
        </mxCell>
        <mxCell id="b-HRCgTtAuN_dH9P7AYA-3" value="クライアント" style="shape=mxgraph.signs.tech.computer;html=1;pointerEvents=1;fillColor=#000000;strokeColor=none;verticalLabelPosition=bottom;verticalAlign=top;align=center;" parent="1" vertex="1">
          <mxGeometry x="330" y="138" width="59" height="59" as="geometry" />
        </mxCell>
        <mxCell id="ur_kVXdHA824hEiuYOVG-12" value="AWS Cloud" style="points=[[0,0],[0.25,0],[0.5,0],[0.75,0],[1,0],[1,0.25],[1,0.5],[1,0.75],[1,1],[0.75,1],[0.5,1],[0.25,1],[0,1],[0,0.75],[0,0.5],[0,0.25]];outlineConnect=0;gradientColor=none;html=1;whiteSpace=wrap;fontSize=12;fontStyle=0;container=1;pointerEvents=0;collapsible=0;recursiveResize=0;shape=mxgraph.aws4.group;grIcon=mxgraph.aws4.group_aws_cloud_alt;strokeColor=#232F3E;fillColor=none;verticalAlign=top;align=left;spacingLeft=30;fontColor=#232F3E;dashed=0;" parent="1" vertex="1">
          <mxGeometry x="105" y="233" width="900" height="374" as="geometry" />
        </mxCell>
        <mxCell id="b-HRCgTtAuN_dH9P7AYA-5" value="Route53" style="sketch=0;points=[[0,0,0],[0.25,0,0],[0.5,0,0],[0.75,0,0],[1,0,0],[0,1,0],[0.25,1,0],[0.5,1,0],[0.75,1,0],[1,1,0],[0,0.25,0],[0,0.5,0],[0,0.75,0],[1,0.25,0],[1,0.5,0],[1,0.75,0]];outlineConnect=0;fontColor=#232F3E;gradientColor=#945DF2;gradientDirection=north;fillColor=#5A30B5;strokeColor=#ffffff;dashed=0;verticalLabelPosition=bottom;verticalAlign=top;align=center;html=1;fontSize=12;fontStyle=0;aspect=fixed;shape=mxgraph.aws4.resourceIcon;resIcon=mxgraph.aws4.route_53;" parent="ur_kVXdHA824hEiuYOVG-12" vertex="1">
          <mxGeometry x="123" y="44" width="78" height="78" as="geometry" />
        </mxCell>
        <mxCell id="b-HRCgTtAuN_dH9P7AYA-9" value="WAF" style="sketch=0;points=[[0,0,0],[0.25,0,0],[0.5,0,0],[0.75,0,0],[1,0,0],[0,1,0],[0.25,1,0],[0.5,1,0],[0.75,1,0],[1,1,0],[0,0.25,0],[0,0.5,0],[0,0.75,0],[1,0.25,0],[1,0.5,0],[1,0.75,0]];outlineConnect=0;fontColor=#232F3E;gradientColor=#F54749;gradientDirection=north;fillColor=#C7131F;strokeColor=#ffffff;dashed=0;verticalLabelPosition=bottom;verticalAlign=top;align=center;html=1;fontSize=12;fontStyle=0;aspect=fixed;shape=mxgraph.aws4.resourceIcon;resIcon=mxgraph.aws4.waf;" parent="ur_kVXdHA824hEiuYOVG-12" vertex="1">
          <mxGeometry x="123" y="165" width="78" height="78" as="geometry" />
        </mxCell>
        <mxCell id="b-HRCgTtAuN_dH9P7AYA-10" style="edgeStyle=orthogonalEdgeStyle;rounded=0;orthogonalLoop=1;jettySize=auto;html=1;" parent="ur_kVXdHA824hEiuYOVG-12" source="b-HRCgTtAuN_dH9P7AYA-5" target="rKdkZZPiWeMUejs4Be-v-1" edge="1">
          <mxGeometry relative="1" as="geometry" />
        </mxCell>
        <mxCell id="ur_kVXdHA824hEiuYOVG-28" value="Other Services" style="fillColor=none;strokeColor=#5A6C86;dashed=1;verticalAlign=top;fontStyle=0;fontColor=#5A6C86;whiteSpace=wrap;html=1;" parent="ur_kVXdHA824hEiuYOVG-12" vertex="1">
          <mxGeometry x="277" y="210" width="469" height="150" as="geometry" />
        </mxCell>
        <mxCell id="ur_kVXdHA824hEiuYOVG-23" value="Cognito" style="sketch=0;points=[[0,0,0],[0.25,0,0],[0.5,0,0],[0.75,0,0],[1,0,0],[0,1,0],[0.25,1,0],[0.5,1,0],[0.75,1,0],[1,1,0],[0,0.25,0],[0,0.5,0],[0,0.75,0],[1,0.25,0],[1,0.5,0],[1,0.75,0]];outlineConnect=0;fontColor=#232F3E;gradientColor=#F54749;gradientDirection=north;fillColor=#C7131F;strokeColor=#ffffff;dashed=0;verticalLabelPosition=bottom;verticalAlign=top;align=center;html=1;fontSize=12;fontStyle=0;aspect=fixed;shape=mxgraph.aws4.resourceIcon;resIcon=mxgraph.aws4.cognito;" parent="ur_kVXdHA824hEiuYOVG-12" vertex="1">
          <mxGeometry x="798" y="44" width="78" height="78" as="geometry" />
        </mxCell>
        <mxCell id="ur_kVXdHA824hEiuYOVG-26" value="S3" style="sketch=0;points=[[0,0,0],[0.25,0,0],[0.5,0,0],[0.75,0,0],[1,0,0],[0,1,0],[0.25,1,0],[0.5,1,0],[0.75,1,0],[1,1,0],[0,0.25,0],[0,0.5,0],[0,0.75,0],[1,0.25,0],[1,0.5,0],[1,0.75,0]];outlineConnect=0;fontColor=#232F3E;gradientColor=#60A337;gradientDirection=north;fillColor=#277116;strokeColor=#ffffff;dashed=0;verticalLabelPosition=bottom;verticalAlign=top;align=center;html=1;fontSize=12;fontStyle=0;aspect=fixed;shape=mxgraph.aws4.resourceIcon;resIcon=mxgraph.aws4.s3;" parent="ur_kVXdHA824hEiuYOVG-12" vertex="1">
          <mxGeometry x="365" y="250" width="78" height="78" as="geometry" />
        </mxCell>
        <mxCell id="ur_kVXdHA824hEiuYOVG-27" value="Lambda" style="sketch=0;points=[[0,0,0],[0.25,0,0],[0.5,0,0],[0.75,0,0],[1,0,0],[0,1,0],[0.25,1,0],[0.5,1,0],[0.75,1,0],[1,1,0],[0,0.25,0],[0,0.5,0],[0,0.75,0],[1,0.25,0],[1,0.5,0],[1,0.75,0]];outlineConnect=0;fontColor=#232F3E;gradientColor=#F78E04;gradientDirection=north;fillColor=#D05C17;strokeColor=#ffffff;dashed=0;verticalLabelPosition=bottom;verticalAlign=top;align=center;html=1;fontSize=12;fontStyle=0;aspect=fixed;shape=mxgraph.aws4.resourceIcon;resIcon=mxgraph.aws4.lambda;" parent="ur_kVXdHA824hEiuYOVG-12" vertex="1">
          <mxGeometry x="579" y="250" width="78" height="78" as="geometry" />
        </mxCell>
        <mxCell id="rKdkZZPiWeMUejs4Be-v-3" style="edgeStyle=orthogonalEdgeStyle;rounded=0;orthogonalLoop=1;jettySize=auto;html=1;" edge="1" parent="ur_kVXdHA824hEiuYOVG-12" source="rKdkZZPiWeMUejs4Be-v-1" target="b-HRCgTtAuN_dH9P7AYA-9">
          <mxGeometry relative="1" as="geometry">
            <Array as="points">
              <mxPoint x="233" y="103" />
              <mxPoint x="233" y="204" />
            </Array>
          </mxGeometry>
        </mxCell>
        <mxCell id="rKdkZZPiWeMUejs4Be-v-4" style="edgeStyle=orthogonalEdgeStyle;rounded=0;orthogonalLoop=1;jettySize=auto;html=1;" edge="1" parent="ur_kVXdHA824hEiuYOVG-12" source="rKdkZZPiWeMUejs4Be-v-1" target="rKdkZZPiWeMUejs4Be-v-2">
          <mxGeometry relative="1" as="geometry" />
        </mxCell>
        <mxCell id="rKdkZZPiWeMUejs4Be-v-1" value="CloudFront" style="sketch=0;points=[[0,0,0],[0.25,0,0],[0.5,0,0],[0.75,0,0],[1,0,0],[0,1,0],[0.25,1,0],[0.5,1,0],[0.75,1,0],[1,1,0],[0,0.25,0],[0,0.5,0],[0,0.75,0],[1,0.25,0],[1,0.5,0],[1,0.75,0]];outlineConnect=0;fontColor=#232F3E;gradientColor=#945DF2;gradientDirection=north;fillColor=#5A30B5;strokeColor=#ffffff;dashed=0;verticalLabelPosition=bottom;verticalAlign=top;align=center;html=1;fontSize=12;fontStyle=0;aspect=fixed;shape=mxgraph.aws4.resourceIcon;resIcon=mxgraph.aws4.cloudfront;" vertex="1" parent="ur_kVXdHA824hEiuYOVG-12">
          <mxGeometry x="264" y="44" width="78" height="78" as="geometry" />
        </mxCell>
        <mxCell id="rKdkZZPiWeMUejs4Be-v-2" value="S3" style="sketch=0;points=[[0,0,0],[0.25,0,0],[0.5,0,0],[0.75,0,0],[1,0,0],[0,1,0],[0.25,1,0],[0.5,1,0],[0.75,1,0],[1,1,0],[0,0.25,0],[0,0.5,0],[0,0.75,0],[1,0.25,0],[1,0.5,0],[1,0.75,0]];outlineConnect=0;fontColor=#232F3E;gradientColor=#60A337;gradientDirection=north;fillColor=#277116;strokeColor=#ffffff;dashed=0;verticalLabelPosition=bottom;verticalAlign=top;align=center;html=1;fontSize=12;fontStyle=0;aspect=fixed;shape=mxgraph.aws4.resourceIcon;resIcon=mxgraph.aws4.s3;" vertex="1" parent="ur_kVXdHA824hEiuYOVG-12">
          <mxGeometry x="401" y="44" width="78" height="78" as="geometry" />
        </mxCell>
        <mxCell id="rKdkZZPiWeMUejs4Be-v-5" value="DynamoDB" style="sketch=0;points=[[0,0,0],[0.25,0,0],[0.5,0,0],[0.75,0,0],[1,0,0],[0,1,0],[0.25,1,0],[0.5,1,0],[0.75,1,0],[1,1,0],[0,0.25,0],[0,0.5,0],[0,0.75,0],[1,0.25,0],[1,0.5,0],[1,0.75,0]];outlineConnect=0;fontColor=#232F3E;gradientColor=#4D72F3;gradientDirection=north;fillColor=#3334B9;strokeColor=#ffffff;dashed=0;verticalLabelPosition=bottom;verticalAlign=top;align=center;html=1;fontSize=12;fontStyle=0;aspect=fixed;shape=mxgraph.aws4.resourceIcon;resIcon=mxgraph.aws4.dynamodb;" vertex="1" parent="ur_kVXdHA824hEiuYOVG-12">
          <mxGeometry x="472" y="250" width="78" height="78" as="geometry" />
        </mxCell>
        <mxCell id="rKdkZZPiWeMUejs4Be-v-9" style="edgeStyle=orthogonalEdgeStyle;rounded=0;orthogonalLoop=1;jettySize=auto;html=1;" edge="1" parent="ur_kVXdHA824hEiuYOVG-12" source="rKdkZZPiWeMUejs4Be-v-6" target="ur_kVXdHA824hEiuYOVG-23">
          <mxGeometry relative="1" as="geometry" />
        </mxCell>
        <mxCell id="rKdkZZPiWeMUejs4Be-v-10" style="edgeStyle=orthogonalEdgeStyle;rounded=0;orthogonalLoop=1;jettySize=auto;html=1;" edge="1" parent="ur_kVXdHA824hEiuYOVG-12" source="rKdkZZPiWeMUejs4Be-v-6" target="rKdkZZPiWeMUejs4Be-v-8">
          <mxGeometry relative="1" as="geometry" />
        </mxCell>
        <mxCell id="rKdkZZPiWeMUejs4Be-v-6" value="Amplify SDK" style="sketch=0;points=[[0,0,0],[0.25,0,0],[0.5,0,0],[0.75,0,0],[1,0,0],[0,1,0],[0.25,1,0],[0.5,1,0],[0.75,1,0],[1,1,0],[0,0.25,0],[0,0.5,0],[0,0.75,0],[1,0.25,0],[1,0.5,0],[1,0.75,0]];outlineConnect=0;fontColor=#232F3E;gradientColor=#F54749;gradientDirection=north;fillColor=#C7131F;strokeColor=#ffffff;dashed=0;verticalLabelPosition=bottom;verticalAlign=top;align=center;html=1;fontSize=12;fontStyle=0;aspect=fixed;shape=mxgraph.aws4.resourceIcon;resIcon=mxgraph.aws4.amplify;" vertex="1" parent="ur_kVXdHA824hEiuYOVG-12">
          <mxGeometry x="668" y="44" width="78" height="78" as="geometry" />
        </mxCell>
        <mxCell id="rKdkZZPiWeMUejs4Be-v-11" style="edgeStyle=orthogonalEdgeStyle;rounded=0;orthogonalLoop=1;jettySize=auto;html=1;entryX=0.5;entryY=0;entryDx=0;entryDy=0;" edge="1" parent="ur_kVXdHA824hEiuYOVG-12" source="rKdkZZPiWeMUejs4Be-v-8" target="ur_kVXdHA824hEiuYOVG-28">
          <mxGeometry relative="1" as="geometry">
            <Array as="points">
              <mxPoint x="512" y="83" />
            </Array>
          </mxGeometry>
        </mxCell>
        <mxCell id="rKdkZZPiWeMUejs4Be-v-8" value="API Gateway" style="sketch=0;points=[[0,0,0],[0.25,0,0],[0.5,0,0],[0.75,0,0],[1,0,0],[0,1,0],[0.25,1,0],[0.5,1,0],[0.75,1,0],[1,1,0],[0,0.25,0],[0,0.5,0],[0,0.75,0],[1,0.25,0],[1,0.5,0],[1,0.75,0]];outlineConnect=0;fontColor=#232F3E;gradientColor=#FF4F8B;gradientDirection=north;fillColor=#BC1356;strokeColor=#ffffff;dashed=0;verticalLabelPosition=bottom;verticalAlign=top;align=center;html=1;fontSize=12;fontStyle=0;aspect=fixed;shape=mxgraph.aws4.resourceIcon;resIcon=mxgraph.aws4.api_gateway;" vertex="1" parent="ur_kVXdHA824hEiuYOVG-12">
          <mxGeometry x="542" y="44" width="78" height="78" as="geometry" />
        </mxCell>
      </root>
    </mxGraphModel>
  </diagram>
</mxfile>
